<svg id="Capa_1" enable-background="new 0 0 512 512" height="512" viewBox="0 0 512 512" width="512" xmlns="http://www.w3.org/2000/svg"><g><g><g><path d="m417.866 343.269h-32.59c.793 5.632 1.207 11.374 1.207 17.204 0 5.066-.308 10.096-.919 15.078.863-.095 1.739-.148 2.626-.148 7.387 0 14 3.375 18.379 8.664 2.918-3.524 6.827-6.199 11.297-7.591z" fill="#fedf30"/></g><path d="m258.537 196.384c7.547 0 14.598 4.073 18.4 10.63l.865 1.492.865-1.492c3.803-6.557 10.854-10.63 18.4-10.63s14.598 4.073 18.4 10.63l.865 1.492.865-1.492c3.803-6.557 10.854-10.63 18.4-10.63s14.598 4.073 18.4 10.63l.865 1.492.865-1.492c3.803-6.557 10.854-10.63 18.4-10.63 7.548 0 14.598 4.073 18.4 10.63l.865 1.492.865-1.492c3.803-6.557 10.854-10.63 18.4-10.63s14.598 4.073 18.4 10.63l.865 1.492.865-1.492c3.803-6.557 10.854-10.63 18.4-10.63s14.597 4.073 18.4 10.63l.865 1.491.865-1.492c3.803-6.557 10.854-10.63 18.4-10.63.144 0 .282.019.425.022-17.728-36.78-62.979-62.932-116.019-62.932s-98.292 26.153-116.019 62.932c.15-.003.289-.021.433-.021z" fill="#f6a96c"/><path d="m258.537 196.384c7.547 0 14.598 4.073 18.4 10.63l.865 1.492.865-1.492c3.803-6.557 10.854-10.63 18.4-10.63 1.932 0 3.83.271 5.651.778 14.959-31.832 50.463-55.848 93.89-62.093-7.29-1.048-14.802-1.596-22.478-1.596-53.04 0-98.292 26.153-116.019 62.932.143-.003.282-.021.426-.021z" fill="#ea9b58"/><g><g><path d="m345.386 167c-4.143 0-7.5-3.358-7.5-7.5v-24.486c0-4.142 3.357-7.5 7.5-7.5s7.5 3.358 7.5 7.5v24.486c0 4.142-3.358 7.5-7.5 7.5z" fill="#ffbd86"/></g><g><path d="m374.131 167c-4.143 0-7.5-3.358-7.5-7.5v-24.486c0-4.142 3.357-7.5 7.5-7.5s7.5 3.358 7.5 7.5v24.486c0 4.142-3.358 7.5-7.5 7.5z" fill="#ffbd86"/></g><g><path d="m402.876 167c-4.143 0-7.5-3.358-7.5-7.5v-24.486c0-4.142 3.357-7.5 7.5-7.5s7.5 3.358 7.5 7.5v24.486c0 4.142-3.357 7.5-7.5 7.5z" fill="#ffbd86"/></g></g><g><path d="m489.725 238.936c-7.547 0-14.598-4.073-18.4-10.63l-.865-1.492-.865 1.491c-3.804 6.557-10.854 10.63-18.4 10.63s-14.598-4.073-18.4-10.63l-.865-1.492-.865 1.492c-3.803 6.557-10.854 10.63-18.4 10.63s-14.598-4.073-18.4-10.63l-.865-1.492-.865 1.492c-3.803 6.557-10.853 10.63-18.4 10.63s-14.598-4.073-18.4-10.63l-.865-1.492-.87 1.493c-3.803 6.557-10.854 10.63-18.4 10.63s-14.598-4.073-18.4-10.63l-.865-1.492-.865 1.492c-2.804 4.836-7.293 8.329-12.639 9.835l-2.752.775 2.636 1.109c20.31 8.542 38.453 21.622 52.472 37.827l.299.346h116.469l19.029-39.326c-.421.024-.835.064-1.259.064z" fill="#7ca1b1"/></g><path d="m489.724 195.384c-8.236 0-15.411 4.482-19.266 11.128-3.855-6.646-11.029-11.128-19.266-11.128-8.236 0-15.411 4.482-19.266 11.128-3.855-6.646-11.029-11.128-19.266-11.128s-15.411 4.482-19.266 11.128c-3.854-6.646-11.029-11.128-19.266-11.128-8.236 0-15.411 4.482-19.266 11.128-3.855-6.646-11.029-11.128-19.266-11.128s-15.411 4.482-19.266 11.128c-3.855-6.646-11.029-11.128-19.266-11.128-8.236 0-15.411 4.482-19.266 11.128-3.855-6.646-11.029-11.128-19.266-11.128-12.303 0-22.276 9.973-22.276 22.276 0 3.87.988 7.509 2.724 10.68 1.603-.05 3.211-.075 4.823-.075 20.47 0 39.943 4.023 57.558 11.249 6.394-1.255 11.801-5.248 14.967-10.706 3.855 6.646 11.029 11.128 19.266 11.128s15.411-4.482 19.266-11.128c3.854 6.646 11.029 11.128 19.266 11.128 8.236 0 15.411-4.482 19.266-11.128 3.855 6.646 11.029 11.128 19.266 11.128s15.411-4.482 19.266-11.128c3.854 6.646 11.029 11.128 19.266 11.128 8.236 0 15.411-4.482 19.266-11.128 3.855 6.646 11.029 11.128 19.266 11.128 12.303 0 22.276-9.973 22.276-22.276.002-12.303-9.971-22.276-22.274-22.276z" fill="#fed2a4"/><path d="m375.356 309.201.617 1.403c4.768 10.839 7.927 22.111 9.449 33.665h48.413c8.82 0 15.969-7.15 15.969-15.969v-19.099z" fill="#e8b800"/><path d="m506.677 277.198h-152.142c8.703 9.917 15.885 21.02 21.222 33.003h130.92c2.94 0 5.323-2.383 5.323-5.323v-22.357c0-2.94-2.383-5.323-5.323-5.323z" fill="#fedf30"/></g><g><g><g><path d="m86.143 272.367h-34.814c-.745-8.973-8.252-16.027-17.418-16.027-9.66 0-17.492 7.831-17.492 17.492 0 4.177 1.469 8.008 3.912 11.016 7.217 1.283 12.957 7.34 13.581 14.849l.076.917h35.733v-1.623c0-1.209.984-2.194 2.194-2.194h14.226v-24.43z" fill="#ffbd86"/></g><path d="m118.809 296.796c6.156-10.336 13.761-19.829 22.561-28.246h-53.033c-1.764 0-3.194 1.43-3.194 3.194v25.052z" fill="#fe7701"/></g><g><path d="m482.442 408.806c.284-.273.579-.529.859-.809 13.174-13.174 18.547-31.187 16.138-48.317-.19-1.35-1.245-2.405-2.595-2.595-17.13-2.408-35.143 2.964-48.317 16.138-9.929 9.929-15.421 22.607-16.496 35.583z" fill="#46cc8d"/><path d="m458.325 408.806 19.443-19.443c2.929-2.929 2.929-7.678 0-10.606-2.93-2.929-7.678-2.929-10.607 0l-30.049 30.049z" fill="#09a755"/></g><g><path d="m447.903 408.806c1.224-2.94 1.902-6.163 1.902-9.546 0-13.728-11.129-24.857-24.857-24.857s-24.857 11.129-24.857 24.857c0 3.383.678 6.607 1.902 9.546z" fill="#fd4755"/><g><path d="m86.994 408.806c1.224-2.94 1.902-6.163 1.902-9.546 0-13.728-11.129-24.857-24.857-24.857s-24.857 11.129-24.857 24.857c0 3.383.678 6.607 1.902 9.546z" fill="#fd4755"/><path d="m243.809 227.265c-54.472 0-101.862 28.108-126.224 69.532h85.327c22.626 0 41.034 18.408 41.034 41.034 0 22.645-18.38 41.067-40.972 41.067-4.474 0-8.934-.744-13.256-2.212l-88.802-30.155c-.514 4.582-.781 9.233-.781 13.941 0 17.052 3.473 33.348 9.773 48.333h267.803c6.299-14.986 9.773-31.281 9.773-48.333-.001-73.568-64.326-133.207-143.675-133.207z" fill="#fe9738"/><g fill="#fe860a"><path d="m172.06 295.797c20.353-33.905 56.21-58.712 98.688-66.184-8.727-1.535-17.73-2.348-26.939-2.348-54.031 0-101.088 27.658-125.621 68.532z"/><path d="m100.81 347.551c-.442 4.253-.675 8.561-.675 12.921 0 17.052 3.473 33.348 9.773 48.333h53.877c-5.658-13.459-9.026-27.977-9.656-43.149z"/></g><path d="m368.796 408.806c1.224-2.94 1.902-6.163 1.902-9.546 0-13.728-11.129-24.857-24.857-24.857s-24.857 11.129-24.857 24.857c0 3.383.678 6.607 1.902 9.546z" fill="#fd4755"/><path d="m411.145 408.806c1.224-2.94 1.902-6.163 1.902-9.546 0-13.728-11.129-24.857-24.857-24.857s-24.857 11.129-24.857 24.857c0 3.383.678 6.607 1.902 9.546z" fill="#e41f2d"/><path d="m123.191 408.806c1.224-2.94 1.902-6.163 1.902-9.546 0-13.728-11.129-24.857-24.857-24.857s-24.857 11.129-24.857 24.857c0 3.383.678 6.607 1.902 9.546z" fill="#e41f2d"/><path d="m69.723 299.613h-34.813c-.745-8.974-8.252-16.028-17.418-16.028-9.661 0-17.492 7.832-17.492 17.492 0 5.426 2.472 10.275 6.35 13.483-3.878 3.209-6.35 8.057-6.35 13.484 0 9.66 7.831 17.492 17.492 17.492 9.166 0 16.672-7.054 17.418-16.028h34.813z" fill="#fed2a4"/><g><path d="m189.397 377.633-118.507-40.242c-1.296-.44-2.167-1.656-2.167-3.024v-35.377c0-1.764 1.43-3.194 3.194-3.194h130.995c23.215 0 42.034 18.819 42.034 42.034 0 28.791-28.288 49.06-55.549 39.803z" fill="#fe7701"/></g><g><path d="m222.084 360.503-118.507-40.241c-1.296-.44-2.167-1.656-2.167-3.024v-21.441h-29.493c-1.764 0-3.194 1.43-3.194 3.194v35.376c0 1.368.871 2.584 2.167 3.024l118.507 40.241c18.284 6.209 37.016-.875 47.379-14.893-4.816.131-9.77-.565-14.692-2.236z" fill="#f46700"/></g></g><g><path d="m483.489 446.616h-437.858c-1.591 0-3.099-.712-4.11-1.941l-23.177-28.164c-2.858-3.473-.388-8.706 4.11-8.706h484.214c4.498 0 6.968 5.233 4.11 8.706l-23.178 28.164c-1.012 1.229-2.519 1.941-4.111 1.941z" fill="#fac600"/></g><g><path d="m106.3 444.675-23.177-28.164c-2.858-3.473-.388-8.706 4.11-8.706h-64.78c-4.498 0-6.968 5.233-4.11 8.706l23.177 28.164c1.011 1.229 2.519 1.941 4.11 1.941h64.779c-1.59 0-3.098-.712-4.109-1.941z" fill="#e8b800"/></g><path d="m230.144 65.384h-45.184c-4.142 0-7.5 3.358-7.5 7.5s3.358 7.5 7.5 7.5h45.184c6.623 0 12.011 5.388 12.011 12.011s-5.388 12.011-12.011 12.011h-56.48c-14.894 0-27.011 12.117-27.011 27.011s12.117 27.011 27.011 27.011h25.471c6.734 0 12.212 5.479 12.212 12.213v17.561c0 4.142 3.358 7.5 7.5 7.5s7.5-3.358 7.5-7.5v-17.561c0-15.005-12.208-27.213-27.212-27.213h-25.471c-6.623 0-12.011-5.388-12.011-12.011s5.388-12.011 12.011-12.011h56.48c14.894 0 27.011-12.117 27.011-27.011s-12.117-27.011-27.011-27.011z" fill="#ffe5c2"/><g><g><path d="m125.682 247.273c-4.142 0-7.5-3.358-7.5-7.5v-17.426c0-6.651-5.411-12.062-12.062-12.062h-25.276c-14.812 0-26.862-12.05-26.862-26.862s12.05-26.862 26.862-26.862h29.552c4.142 0 7.5 3.358 7.5 7.5s-3.358 7.5-7.5 7.5h-29.552c-6.541 0-11.862 5.321-11.862 11.862s5.321 11.862 11.862 11.862h25.276c14.922 0 27.062 12.14 27.062 27.062v17.426c0 4.143-3.358 7.5-7.5 7.5z" fill="#fed2a4"/></g></g></g></g><g><circle cx="299.783" cy="309.714" fill="#fe7701" r="7.5"/></g><g><circle cx="337.899" cy="327.227" fill="#fe7701" r="7.5"/></g><g><circle cx="360.563" cy="354.012" fill="#fe7701" r="7.5"/></g><g><circle cx="328.628" cy="291.171" fill="#fe7701" r="7.5"/></g><g><circle cx="302.873" cy="359.162" fill="#fe7701" r="7.5"/></g></g></svg>