<svg id="icons" enable-background="new 0 0 64 64" height="512" viewBox="0 0 64 64" width="512" xmlns="http://www.w3.org/2000/svg"><g><g><path d="m61.5 7c.83 0 1.5.67 1.5 1.5s-.67 1.5-1.5 1.5h-19.5v-1.5-1.5z" fill="#656d78"/></g><g><path d="m24 8.5v3h-2-2-1v-6h3 2z" fill="#f6bb42"/></g><g><path d="m16 5.5h3v6h-3z" fill="#ffce54"/></g><g><path d="m62 47.5h-18c0-1.66 1.34-3.01 3-3.01h12v.01c1.66 0 3 1.34 3 3z" fill="#fc6e51"/></g><g><path d="m63 47.5v9c0 1.1-.9 2-2 2h-16c-1.11 0-2-.9-2-2v-9h1 18z" fill="#e6e9ed"/></g><g><path d="m20 45.5c1.66 0 3 3.34 3 5s-1.34 3-3 3-3-1.34-3-3 1.34-5 3-5z" fill="#ffce54"/></g><g><path d="m27 55.5v3h-14v-3c0-1.1.9-2 2-2h5 5c1.11 0 2 .89 2 2z" fill="#656d78"/></g><g><path d="m2 58.5 4-16h3l-4 16z" fill="#ccd1d9"/></g><g><path d="m34 42.5 3.99 16h-2.99l-4-16z" fill="#ccd1d9"/></g><g><path d="m38 19.5v19c0 2.21-1.79 4-4 4h-3-11-11-3c-2.21 0-4-1.79-4-4v-19h15 5.96z" fill="#e6e9ed"/></g></g><g><g><path d="m42.001 9.502h-18c-.553 0-1-.447-1-1s.447-1 1-1h18c.553 0 1 .447 1 1s-.447 1-1 1z"/></g><g><path d="m61.501 11.002h-19.5c-.553 0-1-.447-1-1v-2.998c0-.553.447-1 1-1h19.5c.553 0 1 .447 1 1s-.447 1-1 1h-18.5v.998h18.5c.553 0 1 .447 1 1s-.447 1-1 1z"/></g><g><path d="m61.501 11.002c-.553 0-1-.447-1-1s.447-1 1-1c.275 0 .499-.225.499-.5 0-.274-.224-.498-.499-.498-.553 0-1-.447-1-1s.447-1 1-1c1.378 0 2.499 1.121 2.499 2.498 0 1.379-1.121 2.5-2.499 2.5z"/></g><g><path d="m24.001 12.502h-4.999c-.553 0-1-.447-1-1v-6c0-.553.447-1 1-1h4.999c.553 0 1 .447 1 1v6c0 .553-.447 1-1 1zm-3.999-2h2.999v-4h-2.999z"/></g><g><path d="m22.002 12.502h-6c-.553 0-1-.447-1-1v-6c0-.553.447-1 1-1h6c.553 0 1 .447 1 1s-.447 1-1 1h-5v4h5c.553 0 1 .447 1 1s-.447 1-1 1z"/></g><g><path d="m38.998 20.504h-37.997c-.553 0-1-.447-1-1s.447-1 1-1h37.997c.553 0 1 .447 1 1s-.447 1-1 1z"/></g><g><path d="m2 39.5c-.553 0-1-.447-1-1v-18.996c0-.553.447-1 1-1s1 .447 1 1v18.996c0 .553-.447 1-1 1z"/></g><g><path d="m37.996 39.5c-.553 0-1-.447-1-1v-18.996c0-.553.447-1 1-1s1 .447 1 1v18.996c0 .553-.447 1-1 1z"/></g><g><path d="m6 43.5c-2.757 0-5-2.243-5-5 0-.553.447-1 1-1s1 .447 1 1c0 1.654 1.346 3 3 3 .553 0 1 .447 1 1s-.447 1-1 1z"/></g><g><path d="m33.996 43.5c-.553 0-1-.447-1-1s.447-1 1-1c1.654 0 3-1.346 3-3 0-.553.447-1 1-1s1 .447 1 1c0 2.757-2.243 5-5 5z"/></g><g><path d="m33.996 43.5h-27.996c-.553 0-1-.447-1-1s.447-1 1-1h27.996c.553 0 1 .447 1 1s-.447 1-1 1z"/></g><g><path d="m2.004 59.498c-.08 0-.162-.01-.243-.03-.536-.134-.862-.677-.728-1.212l3.997-15.998c.133-.537.674-.866 1.212-.728.536.134.862.677.728 1.212l-3.997 15.998c-.114.455-.521.758-.969.758z"/></g><g><path d="m5.002 59.498c-.08 0-.162-.01-.243-.03-.536-.134-.862-.677-.728-1.212l3.997-15.998c.134-.537.675-.866 1.212-.728.536.134.862.677.728 1.212l-3.997 15.998c-.114.455-.521.758-.969.758z"/></g><g><path d="m37.993 59.498c-.448 0-.855-.303-.969-.758l-3.997-15.998c-.135-.535.191-1.078.728-1.212.534-.138 1.078.19 1.212.728l3.997 15.998c.135.535-.191 1.078-.728 1.212-.081.02-.163.03-.243.03z"/></g><g><path d="m34.998 59.498c-.448 0-.855-.303-.969-.758l-3.997-15.998c-.135-.535.191-1.078.728-1.212.533-.138 1.078.19 1.212.728l3.997 15.998c.135.535-.191 1.078-.728 1.212-.081.02-.163.03-.243.03z"/></g><g><path d="m39 59.498h-38c-.553 0-1-.447-1-1s.447-1 1-1h38c.553 0 1 .447 1 1s-.447 1-1 1z"/></g><g><path d="m27.001 59.498h-14c-.553 0-1-.447-1-1v-2.996c0-.553.447-1 1-1s1 .447 1 1v1.996h12v-1.996c0-.553.447-1 1-1s1 .447 1 1v2.996c0 .553-.447 1-1 1z"/></g><g><path d="m20 54.5c-2.206 0-4-1.794-4-4 0-2.061 1.558-6.002 4-6.002s4 3.941 4 6.002c0 2.206-1.794 4-4 4zm0-8.002c-.748 0-2 2.506-2 4.002 0 1.103.897 2 2 2s2-.897 2-2c0-1.496-1.252-4.002-2-4.002z"/></g><g><path d="m13.001 56.502c-.553 0-1-.447-1-1 0-1.654 1.346-3 2.999-3 .553 0 1 .447 1 1s-.447 1-1 1c-.551 0-.999.448-.999 1 0 .553-.447 1-1 1z"/></g><g><path d="m27.001 56.502c-.553 0-1-.447-1-1 0-.554-.45-1.004-1.003-1.004s-1-.447-1-1 .447-1 1-1c1.656 0 3.003 1.348 3.003 3.004 0 .553-.447 1-1 1z"/></g><g><path d="m24.998 54.502h-9.998c-.553 0-1-.447-1-1s.447-1 1-1h9.998c.553 0 1 .447 1 1s-.447 1-1 1z"/></g><g><path d="m19.999 16.498c-.553 0-1-.447-1-1v-3.996c0-.553.447-1 1-1s1 .447 1 1v3.996c0 .553-.447 1-1 1z"/></g><g><path d="m22.963 20.504c-.553 0-1-.447-1-1v-4.006c0-.553.447-1 1-1s1 .447 1 1v4.006c0 .553-.447 1-1 1z"/></g><g><path d="m17 20.504c-.553 0-1-.447-1-1v-5.006c0-.553.447-1 1-1s1 .447 1 1v5.006c0 .553-.447 1-1 1z"/></g><g><path d="m62.999 57.496c-.553 0-1-.447-1-1v-9c0-.553.447-1 1-1s1 .447 1 1v9c0 .553-.447 1-1 1z"/></g><g><path d="m42.998 57.496c-.553 0-1-.447-1-1v-9c0-.553.447-1 1-1s1 .447 1 1v9c0 .553-.447 1-1 1z"/></g><g><path d="m62.999 48.496h-19.999c-.553 0-1-.447-1-1s.447-1 1-1h19.999c.553 0 1 .447 1 1s-.447 1-1 1z"/></g><g><path d="m44.999 59.496c-1.654 0-3.001-1.346-3.001-3 0-.553.447-1 1-1s1 .447 1 1c0 .552.449 1 1.001 1 .553 0 1 .447 1 1s-.447 1-1 1z"/></g><g><path d="m60.998 59.496c-.553 0-1-.447-1-1s.447-1 1-1c.552 0 1.001-.448 1.001-1 0-.553.447-1 1-1s1 .447 1 1c0 1.654-1.347 3-3.001 3z"/></g><g><path d="m60.998 59.496h-15.999c-.553 0-1-.447-1-1s.447-1 1-1h15.999c.553 0 1 .447 1 1s-.447 1-1 1z"/></g><g><path d="m43.999 48.496c-.553 0-1-.447-1-1 0-2.207 1.795-4.002 4.001-4.002.553 0 1 .447 1 1s-.447 1-1 1c-1.104 0-2.001.898-2.001 2.002 0 .553-.447 1-1 1z"/></g><g><path d="m62 48.496c-.553 0-1-.447-1-1 0-1.103-.897-2-2-2-.553 0-1-.447-1-1s.447-1 1-1c2.206 0 4 1.794 4 4 0 .553-.447 1-1 1z"/></g><g><path d="m59 45.494h-12c-.553 0-1-.447-1-1s.447-1 1-1h12c.553 0 1 .447 1 1s-.447 1-1 1z"/></g></g></svg>