<svg height="512" viewBox="0 0 64 64" width="512" xmlns="http://www.w3.org/2000/svg"><g id="Filled_outline" data-name="Filled outline"><path d="m48 39a3.811 3.811 0 0 0 -4-3h-24a3.811 3.811 0 0 0 -4 3l-2 16v6h36v-6z" fill="#c3565a"/><path d="m42 32h-20v-25a4 4 0 0 1 4-4h12a4 4 0 0 1 4 4z" fill="#ffd782"/><path d="m22 26a4 4 0 0 1 0-8z" fill="#f9bb4b"/><path d="m42 18a4 4 0 0 1 0 8z" fill="#f9bb4b"/><path d="m28 10s1 4 4 6l1-6s2 3 4 4l1-3 4 4v-8a4 4 0 0 0 -4-4h-12a4 4 0 0 0 -4 4v8a16.654 16.654 0 0 1 6-5z" fill="#394d5c"/><path d="m36 23a2 2 0 0 1 2 2v2a0 0 0 0 1 0 0h-4a0 0 0 0 1 0 0v-2a2 2 0 0 1 2-2z" fill="#dd3e46"/><path d="m27 44c0-2.209-1.343-4-3-4s-3 1.791-3 4a4.639 4.639 0 0 0 1 2.962v8.038h4v-8.038a4.639 4.639 0 0 0 1-2.962z" fill="#f4f4e6"/><path d="m38 46h4v9h-4z" fill="#f4f4e6"/><path d="m22 55h4a2 2 0 0 1 2 2v4a0 0 0 0 1 0 0h-8a0 0 0 0 1 0 0v-4a2 2 0 0 1 2-2z" fill="#ffd782"/><path d="m38 55h4a2 2 0 0 1 2 2v4a0 0 0 0 1 0 0h-8a0 0 0 0 1 0 0v-4a2 2 0 0 1 2-2z" fill="#ffd782"/><path d="m14 62h36a1 1 0 0 0 1-1v-6a.852.852 0 0 0 -.008-.124l-2-16c0-.017 0-.033-.007-.05a4.777 4.777 0 0 0 -4.985-3.826h-24a4.785 4.785 0 0 0 -4.992 3.876l-2 16a.852.852 0 0 0 -.008.124v6a1 1 0 0 0 1 1zm13-2h-6v-3a1 1 0 0 1 1-1h4a1 1 0 0 1 1 1zm-4.231-13.678a3.666 3.666 0 0 1 -.769-2.322c0-1.626.916-3 2-3s2 1.374 2 3a3.666 3.666 0 0 1 -.769 2.322 1 1 0 0 0 -.231.64v7.038h-2v-7.038a1 1 0 0 0 -.231-.64zm20.231 13.678h-6v-3a1 1 0 0 1 1-1h4a1 1 0 0 1 1 1zm-4-6v-7h2v7zm-24 1.062 1.985-15.888a2.838 2.838 0 0 1 3.015-2.174h24a2.843 2.843 0 0 1 3.011 2.151l1.989 15.911v4.938h-4v-3a2.951 2.951 0 0 0 -.3-1.285l2.008-2.008a1 1 0 0 0 .273-.9l-1-5-1.96.392.895 4.475-1.63 1.63a2.746 2.746 0 0 0 -.286-.12v-7.184h1a1 1 0 0 0 1-1v-6h-2v5h-2v-5h-2v5h-2v-5h-2v6a1 1 0 0 0 1 1h1v7.184a3 3 0 0 0 -2 2.816v3h-6v-3a3 3 0 0 0 -2-2.816v-6.884a5.708 5.708 0 0 0 1-3.3c0-2.757-1.794-5-4-5s-4 2.243-4 5a5.708 5.708 0 0 0 1 3.3v6.884a2.746 2.746 0 0 0 -.285.117l-1.63-1.63.895-4.471-1.96-.4-1 5a1 1 0 0 0 .273.9l2.007 2.015a2.951 2.951 0 0 0 -.3 1.285v3h-4z"/><path d="m21 26.9v6.1h22v-6.1a5 5 0 0 0 0-9.8v-10.1a5.006 5.006 0 0 0 -5-5h-12a5.006 5.006 0 0 0 -5 5v10.1a5 5 0 0 0 0 9.8zm22-7.728a3 3 0 0 1 0 5.658zm-20-12.172a3 3 0 0 1 3-3h12a3 3 0 0 1 3 3v5.586l-2.293-2.293a1 1 0 0 0 -1.656.391l-.585 1.755a16.076 16.076 0 0 1 -2.634-2.994 1 1 0 0 0 -1.818.39l-.708 4.249a11.478 11.478 0 0 1 -2.336-4.328 1 1 0 0 0 -1.417-.651 18.452 18.452 0 0 0 -4.553 3.232zm0 8.328a15.961 15.961 0 0 1 4.429-3.876 11.483 11.483 0 0 0 4.016 5.38 1 1 0 0 0 .555.168.982.982 0 0 0 .4-.083 1 1 0 0 0 .589-.752l.625-3.751a10.657 10.657 0 0 0 2.939 2.486 1 1 0 0 0 1.4-.579l.488-1.465 2.559 2.558v15.586h-18zm-2 3.843v5.658a3 3 0 0 1 0-5.658z"/><path d="m26 17h2v2h-2z"/><path d="m31 19h2v4h-2z"/><path d="m36 17h2v2h-2z"/><path d="m36 22a3 3 0 0 0 -3 3v1h-6v2h12v-3a3 3 0 0 0 -3-3zm1 4h-2v-1a1 1 0 0 1 2 0z"/></g></svg>