<?xml version="1.0" standalone="no"?><svg xmlns="http://www.w3.org/2000/svg" viewBox="0 0 1440 320"><path fill="#273036" fill-opacity="1" d="M0,192L13.3,197.3C26.7,203,53,213,80,197.3C106.7,181,133,139,160,138.7C186.7,139,213,181,240,192C266.7,203,293,181,320,170.7C346.7,160,373,160,400,186.7C426.7,213,453,267,480,282.7C506.7,299,533,277,560,266.7C586.7,256,613,256,640,245.3C666.7,235,693,213,720,197.3C746.7,181,773,171,800,176C826.7,181,853,203,880,218.7C906.7,235,933,245,960,245.3C986.7,245,1013,235,1040,213.3C1066.7,192,1093,160,1120,122.7C1146.7,85,1173,43,1200,48C1226.7,53,1253,107,1280,160C1306.7,213,1333,267,1360,272C1386.7,277,1413,235,1427,213.3L1440,192L1440,320L1426.7,320C1413.3,320,1387,320,1360,320C1333.3,320,1307,320,1280,320C1253.3,320,1227,320,1200,320C1173.3,320,1147,320,1120,320C1093.3,320,1067,320,1040,320C1013.3,320,987,320,960,320C933.3,320,907,320,880,320C853.3,320,827,320,800,320C773.3,320,747,320,720,320C693.3,320,667,320,640,320C613.3,320,587,320,560,320C533.3,320,507,320,480,320C453.3,320,427,320,400,320C373.3,320,347,320,320,320C293.3,320,267,320,240,320C213.3,320,187,320,160,320C133.3,320,107,320,80,320C53.3,320,27,320,13,320L0,320Z"></path></svg>