<?xml version="1.0" standalone="no"?><svg xmlns="http://www.w3.org/2000/svg" viewBox="0 0 1440 320"><path fill="#a2d9ff" fill-opacity="1" d="M0,192L15,202.7C30,213,60,235,90,234.7C120,235,150,213,180,186.7C210,160,240,128,270,138.7C300,149,330,203,360,229.3C390,256,420,256,450,224C480,192,510,128,540,128C570,128,600,192,630,197.3C660,203,690,149,720,112C750,75,780,53,810,74.7C840,96,870,160,900,165.3C930,171,960,117,990,117.3C1020,117,1050,171,1080,202.7C1110,235,1140,245,1170,218.7C1200,192,1230,128,1260,117.3C1290,107,1320,149,1350,154.7C1380,160,1410,128,1425,112L1440,96L1440,320L1425,320C1410,320,1380,320,1350,320C1320,320,1290,320,1260,320C1230,320,1200,320,1170,320C1140,320,1110,320,1080,320C1050,320,1020,320,990,320C960,320,930,320,900,320C870,320,840,320,810,320C780,320,750,320,720,320C690,320,660,320,630,320C600,320,570,320,540,320C510,320,480,320,450,320C420,320,390,320,360,320C330,320,300,320,270,320C240,320,210,320,180,320C150,320,120,320,90,320C60,320,30,320,15,320L0,320Z"></path></svg>